<svg version="1.1" id="Layer_1" xmlns="http://www.w3.org/2000/svg" xmlns:xlink="http://www.w3.org/1999/xlink" x="0px" y="0px"
	 width="100%" viewBox="0 0 543 161" enable-background="new 0 0 543 161" xml:space="preserve">
<path fill="ffffff" opacity="1.000000" stroke="none" 
	d="
M361.000000,162.000000 
	C240.666687,162.000000 120.833374,162.000000 1.000048,162.000000 
	C1.000032,108.333366 1.000032,54.666729 1.000016,1.000070 
	C181.999939,1.000046 362.999878,1.000046 543.999878,1.000023 
	C543.999878,54.666595 543.999878,108.333191 543.999939,161.999893 
	C483.166656,162.000000 422.333344,162.000000 361.000000,162.000000 
M49.961357,83.037193 
	C59.285542,83.037193 68.609726,83.037193 77.933914,83.037193 
	C73.828110,82.004463 69.719925,81.887733 65.621010,82.032959 
	C60.055084,82.230164 54.496258,82.627808 48.821209,82.987274 
	C48.821209,82.987274 48.737450,83.199203 48.737450,83.199203 
	C48.737450,83.199203 49.027489,83.045013 49.961357,83.037193 
M290.417847,49.483974 
	C297.899811,49.483974 305.381805,49.483974 312.863770,49.483974 
	C312.873810,48.762486 312.883850,48.040997 312.893890,47.319508 
	C305.385254,47.319508 297.876648,47.319508 289.395752,47.155170 
	C285.501221,47.183971 281.606720,47.212772 276.811829,47.196301 
	C269.040588,47.196301 261.269379,47.196301 253.498138,47.196301 
	C253.506699,47.689156 253.515244,48.182011 253.523804,48.674866 
	C261.864899,49.057259 270.206024,49.439648 279.243378,49.941975 
	C282.645630,49.893757 286.047913,49.845543 290.417847,49.483974 
M310.983002,43.946480 
	C293.399872,43.946480 275.816711,43.946480 258.233582,43.946480 
	C274.735321,44.931648 291.227478,44.953526 307.719299,44.893875 
	C309.181549,44.888588 310.641876,44.351994 312.393616,43.281151 
	C312.567505,32.925976 312.851257,22.570089 312.784515,12.216470 
	C312.775574,10.830385 310.995361,9.455715 309.094269,8.037841 
	C300.735199,7.415904 292.376373,6.790871 284.016510,6.179969 
	C283.531036,6.144491 283.035004,6.202404 282.547577,6.252674 
	C277.009247,6.823832 271.478363,7.483278 265.930847,7.942080 
	C263.366669,8.154147 260.770416,7.978249 258.188690,7.978249 
	C258.210663,8.288247 258.232666,8.598245 258.254669,8.908242 
	C275.516357,8.908242 292.778046,8.908242 310.576477,9.450419 
	C311.046265,11.332356 311.899048,13.209751 311.921417,15.096987 
	C312.035339,24.702881 311.934296,34.311321 310.983002,43.946480 
M306.479004,52.008938 
	C310.269165,52.008938 314.059296,52.008938 317.849457,52.008938 
	C317.845276,51.773975 317.841125,51.539017 317.836945,51.304054 
	C295.956512,51.304054 274.076050,51.304054 252.195618,51.304054 
	C252.195236,51.538788 252.194839,51.773518 252.194458,52.008251 
	C269.958527,52.008251 287.722565,52.008251 306.479004,52.008938 
M45.001575,119.500000 
	C45.001575,109.720337 45.001575,99.940681 45.001575,90.161018 
	C44.784378,90.167122 44.567177,90.173233 44.349979,90.179337 
	C44.349979,110.733749 44.349979,131.288162 44.349979,151.842590 
	C44.567181,151.841904 44.784382,151.841217 45.001583,151.840546 
	C45.001583,141.393692 45.001583,130.946854 45.001575,119.500000 
M307.016388,114.500000 
	C307.016388,106.414803 307.016388,98.329613 307.016388,90.244415 
	C306.774109,90.253464 306.531830,90.262512 306.289551,90.271561 
	C306.289551,110.809975 306.289551,131.348389 306.289551,151.886795 
	C306.531860,151.887100 306.774200,151.887405 307.016510,151.887711 
	C307.016510,139.758469 307.016510,127.629234 307.016388,114.500000 
M464.016632,133.499878 
	C464.016632,139.905472 464.016632,146.311050 464.016632,152.716644 
	C464.241699,152.706467 464.466766,152.696274 464.691833,152.686096 
	C464.691833,132.511841 464.691833,112.337601 464.691833,92.163353 
	C464.466614,92.163231 464.241425,92.163116 464.016205,92.162994 
	C464.016205,105.608643 464.016205,119.054291 464.016632,133.499878 
M59.013832,115.502228 
	C59.013832,110.389351 59.013832,105.276474 59.013832,100.163597 
	C58.793839,100.175446 58.573849,100.187286 58.353855,100.199127 
	C58.353855,117.396553 58.353855,134.593979 58.353855,151.791412 
	C58.573879,151.790100 58.793900,151.788788 59.013924,151.787476 
	C59.013924,140.025421 59.013924,128.263367 59.013832,115.502228 
M283.953064,30.728102 
	C285.149353,27.429506 286.345612,24.130913 287.656128,20.517361 
	C286.731873,20.453978 285.103119,20.168324 285.043091,20.363878 
	C283.870239,24.187529 282.879974,28.067207 281.852417,31.935436 
	C282.480316,31.718292 283.108246,31.501150 283.953064,30.728102 
M251.004700,29.493000 
	C251.004700,33.917225 251.004700,38.341446 251.004700,42.765671 
	C251.239792,42.751022 251.474869,42.736374 251.709961,42.721725 
	C251.709961,31.858335 251.709961,20.994947 251.709961,10.131558 
	C251.474945,10.131580 251.239929,10.131603 251.004913,10.131626 
	C251.004913,16.253071 251.004913,22.374514 251.004700,29.493000 
M494.676483,113.275719 
	C491.186890,113.189224 487.697754,113.072525 484.207611,113.024719 
	C480.697632,112.976639 479.030884,111.208862 479.049408,107.737267 
	C479.066711,104.492134 479.053101,101.246826 479.053101,98.001587 
	C478.087708,101.810814 477.647644,105.679398 478.285583,109.361206 
	C478.575775,111.036003 480.857391,113.388550 482.482025,113.607742 
	C486.529053,114.153763 490.717377,113.652534 494.676483,113.275719 
M482.118286,81.864174 
	C480.052063,81.864174 477.985840,81.864174 475.919617,81.864174 
	C475.924530,82.114296 475.929474,82.364410 475.934418,82.614532 
	C483.556152,82.614532 491.177887,82.614532 498.799591,82.614532 
	C498.797333,82.378166 498.795074,82.141792 498.792816,81.905426 
	C493.509003,81.905426 488.225159,81.905426 482.118286,81.864174 
M315.056152,37.307274 
	C315.056152,39.478649 315.056152,41.650024 315.056152,43.821404 
	C315.281006,43.807747 315.505859,43.794094 315.730713,43.780441 
	C315.730713,35.896729 315.730713,28.013016 315.730713,20.129303 
	C315.506104,20.126535 315.281464,20.123768 315.056854,20.121000 
	C315.056854,25.536156 315.056854,30.951309 315.056152,37.307274 
M478.996735,142.456223 
	C478.996735,138.358261 478.996735,134.260284 478.996735,130.162323 
	C478.785309,130.176422 478.573853,130.190521 478.362427,130.204636 
	C478.362427,137.406494 478.362427,144.608368 478.362427,151.810226 
	C478.573639,151.806961 478.784882,151.803696 478.996094,151.800430 
	C478.996094,149.007019 478.996094,146.213608 478.996735,142.456223 
M254.563019,22.235174 
	C254.350021,25.765928 254.137039,29.296682 253.924057,32.827435 
	C254.209137,32.835838 254.494217,32.844238 254.779297,32.852638 
	C254.779297,29.400381 254.779297,25.948124 254.563019,22.235174 
M296.494110,5.066092 
	C295.704193,5.124312 294.914276,5.182532 294.124390,5.240752 
	C294.133667,5.358925 294.142944,5.477098 294.152222,5.595270 
	C297.642883,5.595270 301.133575,5.595270 304.624268,5.595270 
	C304.619965,5.416772 304.615631,5.238275 304.611328,5.059777 
	C302.144470,5.059777 299.677612,5.059777 296.494110,5.066092 
M520.465332,128.728683 
	C520.669739,129.466354 520.874146,130.204025 521.078552,130.941696 
	C521.575500,130.500046 522.072449,130.058395 522.569458,129.616745 
	C521.884277,128.330887 521.199036,127.045006 520.513855,125.759140 
	C520.240845,125.875389 519.967773,125.991638 519.694702,126.107895 
	C519.880371,126.834862 520.066040,127.561829 520.465332,128.728683 
M523.491882,137.472046 
	C523.307495,137.260437 523.123169,137.048813 522.938782,136.837189 
	C522.798401,137.089111 522.658081,137.341034 522.517700,137.592957 
	C522.828430,137.642044 523.139099,137.691132 523.491882,137.472046 
M315.438080,6.510920 
	C315.301086,6.434200 315.158752,6.291151 315.028809,6.301610 
	C314.923767,6.310066 314.732391,6.528845 314.752930,6.610793 
	C314.904510,7.215343 315.099701,7.808959 315.281128,8.406023 
	C315.429535,8.349439 315.577911,8.292854 315.726288,8.236271 
	C315.676514,7.755290 315.626770,7.274308 315.438080,6.510920 
M84.170311,83.520279 
	C84.032608,83.547615 83.894913,83.574944 83.757210,83.602272 
	C83.873558,83.611771 83.989899,83.621269 84.170311,83.520279 
M469.960144,82.503616 
	C469.960144,82.503616 469.997772,82.461578 469.960144,82.503616 
M315.474579,14.005657 
	C315.474579,14.005657 315.518127,13.993482 315.474579,14.005657 
M522.528748,143.010422 
	C522.528748,143.010422 522.480957,143.024521 522.528748,143.010422 
M467.514160,83.532089 
	C467.514160,83.532089 467.496826,83.482285 467.514160,83.532089 
M503.539124,83.491760 
	C503.539124,83.491760 503.485626,83.510429 503.539124,83.491760 
z"/>
<path fill="ffffff" opacity="1.000000" stroke="none" 
	d="
M305.982819,52.008595 
	C287.722565,52.008251 269.958527,52.008251 252.194458,52.008251 
	C252.194839,51.773518 252.195236,51.538788 252.195618,51.304054 
	C274.076050,51.304054 295.956512,51.304054 317.836945,51.304054 
	C317.841125,51.539017 317.845276,51.773975 317.849457,52.008938 
	C314.059296,52.008938 310.269165,52.008938 305.982819,52.008595 
z"/>
<path fill="ffffff" opacity="1.000000" stroke="none" 
	d="
M45.001579,120.000000 
	C45.001583,130.946854 45.001583,141.393692 45.001583,151.840546 
	C44.784382,151.841217 44.567181,151.841904 44.349979,151.842590 
	C44.349979,131.288162 44.349979,110.733749 44.349979,90.179337 
	C44.567177,90.173233 44.784378,90.167122 45.001575,90.161018 
	C45.001575,99.940681 45.001575,109.720337 45.001579,120.000000 
z"/>
<path fill="ffffff" opacity="1.000000" stroke="none" 
	d="
M307.016449,115.000000 
	C307.016510,127.629234 307.016510,139.758469 307.016510,151.887711 
	C306.774200,151.887405 306.531860,151.887100 306.289551,151.886795 
	C306.289551,131.348389 306.289551,110.809975 306.289551,90.271561 
	C306.531830,90.262512 306.774109,90.253464 307.016388,90.244415 
	C307.016388,98.329613 307.016388,106.414803 307.016449,115.000000 
z"/>
<path fill="ffffff" opacity="1.000000" stroke="none" 
	d="
M464.016418,132.999908 
	C464.016205,119.054291 464.016205,105.608643 464.016205,92.162994 
	C464.241425,92.163116 464.466614,92.163231 464.691833,92.163353 
	C464.691833,112.337601 464.691833,132.511841 464.691833,152.686096 
	C464.466766,152.696274 464.241699,152.706467 464.016632,152.716644 
	C464.016632,146.311050 464.016632,139.905472 464.016418,132.999908 
z"/>
<path fill="ffffff" opacity="1.000000" stroke="none" 
	d="
M310.039734,8.908242 
	C292.778046,8.908242 275.516357,8.908242 258.254669,8.908242 
	C258.232666,8.598245 258.210663,8.288247 258.188690,7.978249 
	C260.770416,7.978249 263.366669,8.154147 265.930847,7.942080 
	C271.478363,7.483278 277.009247,6.823832 282.547577,6.252674 
	C283.035004,6.202404 283.531036,6.144491 284.016510,6.179969 
	C292.376373,6.790871 300.735199,7.415904 309.564514,8.264657 
	C310.034729,8.491473 310.039734,8.908242 310.039734,8.908242 
z"/>
<path fill="ffffff" opacity="1.000000" stroke="none" 
	d="
M59.013878,116.001770 
	C59.013924,128.263367 59.013924,140.025421 59.013924,151.787476 
	C58.793900,151.788788 58.573879,151.790100 58.353855,151.791412 
	C58.353855,134.593979 58.353855,117.396553 58.353855,100.199127 
	C58.573849,100.187286 58.793839,100.175446 59.013832,100.163597 
	C59.013832,105.276474 59.013832,110.389351 59.013878,116.001770 
z"/>
<path fill="ffffff" opacity="1.000000" stroke="none" 
	d="
M312.103119,44.062164 
	C310.641876,44.351994 309.181549,44.888588 307.719299,44.893875 
	C291.227478,44.953526 274.735321,44.931648 258.233582,43.946480 
	C275.816711,43.946480 293.399872,43.946480 311.494781,43.969063 
	C312.006561,43.991650 312.103119,44.062164 312.103119,44.062164 
z"/>
<path fill="ffffff" opacity="1.000000" stroke="none" 
	d="
M278.547119,49.822037 
	C270.206024,49.439648 261.864899,49.057259 253.523804,48.674866 
	C253.515244,48.182011 253.506699,47.689156 253.498138,47.196301 
	C261.269379,47.196301 269.040588,47.196301 277.386230,47.653618 
	C278.156158,48.681301 278.351654,49.251667 278.547119,49.822037 
z"/>
<path fill="ffffff" opacity="1.000000" stroke="none" 
	d="
M290.368011,47.319504 
	C297.876648,47.319508 305.385254,47.319508 312.893890,47.319508 
	C312.883850,48.040997 312.873810,48.762486 312.863770,49.483974 
	C305.381805,49.483974 297.899811,49.483974 290.102600,49.232872 
	C289.980927,48.427685 290.174469,47.873592 290.368011,47.319504 
z"/>
<path fill="ffffff" opacity="1.000000" stroke="none" 
	d="
M283.844604,31.006054 
	C283.108246,31.501150 282.480316,31.718292 281.852417,31.935434 
	C282.879974,28.067207 283.870239,24.187529 285.043091,20.363878 
	C285.103119,20.168324 286.731873,20.453978 287.656128,20.517361 
	C286.345612,24.130913 285.149353,27.429506 283.844604,31.006054 
z"/>
<path fill="ffffff" opacity="1.000000" stroke="none" 
	d="
M251.004807,28.994480 
	C251.004913,22.374514 251.004913,16.253071 251.004913,10.131626 
	C251.239929,10.131603 251.474945,10.131580 251.709961,10.131558 
	C251.709961,20.994947 251.709961,31.858335 251.709961,42.721725 
	C251.474869,42.736374 251.239792,42.751022 251.004700,42.765671 
	C251.004700,38.341446 251.004700,33.917225 251.004807,28.994480 
z"/>
<path fill="ffffff" opacity="1.000000" stroke="none" 
	d="
M310.308105,9.179331 
	C310.039734,8.908242 310.034729,8.491473 310.035065,8.283616 
	C310.995361,9.455715 312.775574,10.830385 312.784515,12.216470 
	C312.851257,22.570089 312.567505,32.925976 312.248352,43.671658 
	C312.103119,44.062164 312.006561,43.991650 311.957520,43.955261 
	C311.934296,34.311321 312.035339,24.702881 311.921417,15.096987 
	C311.899048,13.209751 311.046265,11.332356 310.308105,9.179331 
z"/>
<path fill="ffffff" opacity="1.000000" stroke="none" 
	d="
M494.762726,113.423721 
	C490.717377,113.652534 486.529053,114.153763 482.482025,113.607742 
	C480.857391,113.388550 478.575775,111.036003 478.285583,109.361206 
	C477.647644,105.679398 478.087708,101.810814 479.053101,98.001587 
	C479.053101,101.246826 479.066711,104.492134 479.049408,107.737267 
	C479.030884,111.208862 480.697632,112.976639 484.207611,113.024719 
	C487.697754,113.072525 491.186890,113.189224 494.762726,113.423721 
z"/>
<path fill="ffffff" opacity="1.000000" stroke="none" 
	d="
M289.881897,47.237335 
	C290.174469,47.873592 289.980927,48.427685 289.618774,49.389549 
	C286.047913,49.845543 282.645630,49.893757 278.895264,49.882004 
	C278.351654,49.251667 278.156158,48.681301 277.836426,47.676254 
	C281.606720,47.212772 285.501221,47.183971 289.881897,47.237335 
z"/>
<path fill="ffffff" opacity="1.000000" stroke="none" 
	d="
M48.934383,82.939484 
	C54.496258,82.627808 60.055084,82.230164 65.621010,82.032959 
	C69.719925,81.887733 73.828110,82.004463 77.933914,83.037193 
	C68.609726,83.037193 59.285542,83.037193 49.471428,83.014473 
	C48.981495,82.991753 48.934383,82.939484 48.934383,82.939484 
z"/>
<path fill="ffffff" opacity="1.000000" stroke="none" 
	d="
M482.529785,81.884796 
	C488.225159,81.905426 493.509003,81.905426 498.792816,81.905426 
	C498.795074,82.141792 498.797333,82.378166 498.799591,82.614532 
	C491.177887,82.614532 483.556152,82.614532 475.934418,82.614532 
	C475.929474,82.364410 475.924530,82.114296 475.919617,81.864174 
	C477.985840,81.864174 480.052063,81.864174 482.529785,81.884796 
z"/>
<path fill="ffffff" opacity="1.000000" stroke="none" 
	d="
M315.056519,36.836868 
	C315.056854,30.951309 315.056854,25.536156 315.056854,20.121000 
	C315.281464,20.123768 315.506104,20.126535 315.730713,20.129303 
	C315.730713,28.013016 315.730713,35.896729 315.730713,43.780441 
	C315.505859,43.794094 315.281006,43.807747 315.056152,43.821404 
	C315.056152,41.650024 315.056152,39.478649 315.056519,36.836868 
z"/>
<path fill="ffffff" opacity="1.000000" stroke="none" 
	d="
M478.996399,142.938202 
	C478.996094,146.213608 478.996094,149.007019 478.996094,151.800430 
	C478.784882,151.803696 478.573639,151.806961 478.362427,151.810226 
	C478.362427,144.608368 478.362427,137.406494 478.362427,130.204636 
	C478.573853,130.190521 478.785309,130.176422 478.996735,130.162323 
	C478.996735,134.260284 478.996735,138.358261 478.996399,142.938202 
z"/>
<path fill="ffffff" opacity="1.000000" stroke="none" 
	d="
M254.671158,22.365520 
	C254.779297,25.948124 254.779297,29.400381 254.779297,32.852638 
	C254.494217,32.844238 254.209137,32.835838 253.924057,32.827435 
	C254.137039,29.296682 254.350021,25.765928 254.671158,22.365520 
z"/>
<path fill="ffffff" opacity="1.000000" stroke="none" 
	d="
M296.852417,5.062935 
	C299.677612,5.059777 302.144470,5.059777 304.611328,5.059777 
	C304.615631,5.238275 304.619965,5.416772 304.624268,5.595270 
	C301.133575,5.595270 297.642883,5.595270 294.152222,5.595270 
	C294.142944,5.477098 294.133667,5.358925 294.124390,5.240752 
	C294.914276,5.182532 295.704193,5.124312 296.852417,5.062935 
z"/>
<path fill="ffffff" opacity="1.000000" stroke="none" 
	d="
M520.358521,128.508743 
	C520.066040,127.561829 519.880371,126.834862 519.694702,126.107895 
	C519.967773,125.991638 520.240845,125.875389 520.513855,125.759140 
	C521.199036,127.045006 521.884277,128.330887 522.569458,129.616745 
	C522.072449,130.058395 521.575500,130.500046 521.078552,130.941696 
	C520.874146,130.204025 520.669739,129.466354 520.358521,128.508743 
z"/>
<path fill="ffffff" opacity="1.000000" stroke="none" 
	d="
M523.470825,137.606125 
	C523.139099,137.691132 522.828430,137.642044 522.517700,137.592957 
	C522.658081,137.341034 522.798401,137.089111 522.938782,136.837189 
	C523.123169,137.048813 523.307495,137.260437 523.470825,137.606125 
z"/>
<path fill="ffffff" opacity="1.000000" stroke="none" 
	d="
M315.507538,6.652123 
	C315.626770,7.274308 315.676514,7.755290 315.726288,8.236271 
	C315.577911,8.292854 315.429535,8.349439 315.281128,8.406023 
	C315.099701,7.808959 314.904510,7.215343 314.752930,6.610793 
	C314.732391,6.528845 314.923767,6.310066 315.028809,6.301610 
	C315.158752,6.291151 315.301086,6.434200 315.507538,6.652123 
z"/>
<path fill="ffffff" opacity="1.000000" stroke="none" 
	d="
M84.138275,83.575516 
	C83.989899,83.621269 83.873558,83.611771 83.757210,83.602272 
	C83.894913,83.574944 84.032608,83.547615 84.138275,83.575516 
z"/>
<path fill="ffffff" opacity="1.000000" stroke="none" 
	d="
M469.978943,82.482597 
	C469.997772,82.461578 469.960144,82.503616 469.978943,82.482597 
z"/>
<path fill="ffffff" opacity="1.000000" stroke="none" 
	d="
M49.004494,83.018387 
	C49.027489,83.045013 48.737450,83.199203 48.737450,83.199203 
	C48.737450,83.199203 48.821209,82.987274 48.877796,82.963379 
	C48.934383,82.939484 48.981495,82.991753 49.004494,83.018387 
z"/>
<path fill="ffffff" opacity="1.000000" stroke="none" 
	d="
M315.496338,13.999569 
	C315.518127,13.993482 315.474579,14.005657 315.496338,13.999569 
z"/>
<path fill="ffffff" opacity="1.000000" stroke="none" 
	d="
M522.504883,143.017471 
	C522.480957,143.024521 522.528748,143.010422 522.504883,143.017471 
z"/>
<path fill="ffffff" opacity="1.000000" stroke="none" 
	d="
M467.505493,83.507187 
	C467.496826,83.482285 467.514160,83.532089 467.505493,83.507187 
z"/>
<path fill="ffffff" opacity="1.000000" stroke="none" 
	d="
M503.512390,83.501099 
	C503.485626,83.510429 503.539124,83.491760 503.512390,83.501099 
z"/>
</svg>